<svg xmlns="http://www.w3.org/2000/svg" width="40" height="40" viewBox="0 0 40 40" fill="none">
  <rect width="40" height="40" rx="20" fill="#F0F0F0"/>
  <path d="M20 10C14.477 10 10 14.477 10 20C10 25.523 14.477 30 20 30C25.523 30 30 25.523 30 20C30 14.477 25.523 10 20 10ZM16 17C16 16.448 16.448 16 17 16H23C23.552 16 24 16.448 24 17C24 17.552 23.552 18 23 18H17C16.448 18 16 17.552 16 17ZM16 21C16 20.448 16.448 20 17 20H23C23.552 20 24 20.448 24 21C24 21.552 23.552 22 23 22H17C16.448 22 16 21.552 16 21ZM16 25C16 24.448 16.448 24 17 24H23C23.552 24 24 24.448 24 25C24 25.552 23.552 26 23 26H17C16.448 26 16 25.552 16 25Z" fill="#333333"/>
</svg> 